<mxfile host="65bd71144e">
    <diagram id="ucTMqAVlQvTARXgCDC0t" name="Page-1">
        <mxGraphModel dx="6354" dy="5276" grid="1" gridSize="10" guides="1" tooltips="1" connect="1" arrows="1" fold="1" page="1" pageScale="1" pageWidth="827" pageHeight="1169" math="0" shadow="0">
            <root>
                <mxCell id="0"/>
                <mxCell id="1" parent="0"/>
                <mxCell id="248" value="" style="ellipse;whiteSpace=wrap;html=1;aspect=fixed;fillColor=#6d8764;fontColor=#ffffff;strokeColor=#3A5431;" vertex="1" parent="1">
                    <mxGeometry x="-3308" y="-3340" width="16110" height="16110" as="geometry"/>
                </mxCell>
                <mxCell id="86" value="" style="ellipse;whiteSpace=wrap;html=1;aspect=fixed;fillColor=#76608a;fontColor=#ffffff;strokeColor=#432D57;" vertex="1" parent="1">
                    <mxGeometry x="-1490" y="-920" width="5910" height="5910" as="geometry"/>
                </mxCell>
                <mxCell id="32" value="" style="ellipse;whiteSpace=wrap;html=1;aspect=fixed;fillColor=#f0a30a;fontColor=#000000;strokeColor=#BD7000;" vertex="1" parent="1">
                    <mxGeometry x="-250" y="-280" width="2140" height="2140" as="geometry"/>
                </mxCell>
                <mxCell id="5" value="" style="ellipse;whiteSpace=wrap;html=1;aspect=fixed;fillColor=#d80073;fontColor=#ffffff;strokeColor=#A50040;" vertex="1" parent="1">
                    <mxGeometry x="100" y="110" width="720" height="720" as="geometry"/>
                </mxCell>
                <mxCell id="2" value="" style="ellipse;whiteSpace=wrap;html=1;aspect=fixed;fillColor=#60a917;fontColor=#ffffff;strokeColor=#2D7600;" vertex="1" parent="1">
                    <mxGeometry x="310" y="200" width="220" height="220" as="geometry"/>
                </mxCell>
                <mxCell id="9" value="Projet" style="text;html=1;strokeColor=none;fillColor=none;align=center;verticalAlign=middle;whiteSpace=wrap;rounded=0;fontSize=90;" vertex="1" parent="1">
                    <mxGeometry x="515" y="320" width="280" height="80" as="geometry"/>
                </mxCell>
                <mxCell id="10" value="" style="ellipse;whiteSpace=wrap;html=1;aspect=fixed;fillColor=#60a917;fontColor=#ffffff;strokeColor=#2D7600;" vertex="1" parent="1">
                    <mxGeometry x="270" y="490" width="220" height="220" as="geometry"/>
                </mxCell>
                <mxCell id="13" value="" style="ellipse;whiteSpace=wrap;html=1;aspect=fixed;fillColor=#60a917;fontColor=#ffffff;strokeColor=#2D7600;" vertex="1" parent="1">
                    <mxGeometry x="510" y="420" width="220" height="220" as="geometry"/>
                </mxCell>
                <mxCell id="12" value="view" style="text;html=1;strokeColor=none;fillColor=none;align=center;verticalAlign=middle;whiteSpace=wrap;rounded=0;fontSize=90;" vertex="1" parent="1">
                    <mxGeometry x="530" y="490" width="190" height="80" as="geometry"/>
                </mxCell>
                <mxCell id="14" value="view" style="text;html=1;strokeColor=none;fillColor=none;align=center;verticalAlign=middle;whiteSpace=wrap;rounded=0;fontSize=90;" vertex="1" parent="1">
                    <mxGeometry x="325" y="270" width="190" height="80" as="geometry"/>
                </mxCell>
                <mxCell id="15" value="view" style="text;html=1;strokeColor=none;fillColor=none;align=center;verticalAlign=middle;whiteSpace=wrap;rounded=0;fontSize=90;" vertex="1" parent="1">
                    <mxGeometry x="285" y="570" width="190" height="80" as="geometry"/>
                </mxCell>
                <mxCell id="16" value="" style="ellipse;whiteSpace=wrap;html=1;aspect=fixed;fillColor=#d80073;fontColor=#ffffff;strokeColor=#A50040;" vertex="1" parent="1">
                    <mxGeometry x="890" y="340" width="720" height="720" as="geometry"/>
                </mxCell>
                <mxCell id="17" value="" style="ellipse;whiteSpace=wrap;html=1;aspect=fixed;fillColor=#60a917;fontColor=#ffffff;strokeColor=#2D7600;" vertex="1" parent="1">
                    <mxGeometry x="1100" y="430" width="220" height="220" as="geometry"/>
                </mxCell>
                <mxCell id="18" value="Projet" style="text;html=1;strokeColor=none;fillColor=none;align=center;verticalAlign=middle;whiteSpace=wrap;rounded=0;fontSize=90;" vertex="1" parent="1">
                    <mxGeometry x="1305" y="550" width="280" height="80" as="geometry"/>
                </mxCell>
                <mxCell id="19" value="" style="ellipse;whiteSpace=wrap;html=1;aspect=fixed;fillColor=#60a917;fontColor=#ffffff;strokeColor=#2D7600;" vertex="1" parent="1">
                    <mxGeometry x="1060" y="720" width="220" height="220" as="geometry"/>
                </mxCell>
                <mxCell id="20" value="" style="ellipse;whiteSpace=wrap;html=1;aspect=fixed;fillColor=#60a917;fontColor=#ffffff;strokeColor=#2D7600;" vertex="1" parent="1">
                    <mxGeometry x="1300" y="650" width="220" height="220" as="geometry"/>
                </mxCell>
                <mxCell id="21" value="view" style="text;html=1;strokeColor=none;fillColor=none;align=center;verticalAlign=middle;whiteSpace=wrap;rounded=0;fontSize=90;" vertex="1" parent="1">
                    <mxGeometry x="1320" y="720" width="190" height="80" as="geometry"/>
                </mxCell>
                <mxCell id="22" value="view" style="text;html=1;strokeColor=none;fillColor=none;align=center;verticalAlign=middle;whiteSpace=wrap;rounded=0;fontSize=90;" vertex="1" parent="1">
                    <mxGeometry x="1115" y="500" width="190" height="80" as="geometry"/>
                </mxCell>
                <mxCell id="23" value="view" style="text;html=1;strokeColor=none;fillColor=none;align=center;verticalAlign=middle;whiteSpace=wrap;rounded=0;fontSize=90;" vertex="1" parent="1">
                    <mxGeometry x="1075" y="800" width="190" height="80" as="geometry"/>
                </mxCell>
                <mxCell id="24" value="" style="ellipse;whiteSpace=wrap;html=1;aspect=fixed;fillColor=#d80073;fontColor=#ffffff;strokeColor=#A50040;" vertex="1" parent="1">
                    <mxGeometry x="250" y="880" width="720" height="720" as="geometry"/>
                </mxCell>
                <mxCell id="25" value="" style="ellipse;whiteSpace=wrap;html=1;aspect=fixed;fillColor=#60a917;fontColor=#ffffff;strokeColor=#2D7600;" vertex="1" parent="1">
                    <mxGeometry x="460" y="970" width="220" height="220" as="geometry"/>
                </mxCell>
                <mxCell id="26" value="Projet" style="text;html=1;strokeColor=none;fillColor=none;align=center;verticalAlign=middle;whiteSpace=wrap;rounded=0;fontSize=90;" vertex="1" parent="1">
                    <mxGeometry x="665" y="1090" width="280" height="80" as="geometry"/>
                </mxCell>
                <mxCell id="27" value="" style="ellipse;whiteSpace=wrap;html=1;aspect=fixed;fillColor=#60a917;fontColor=#ffffff;strokeColor=#2D7600;" vertex="1" parent="1">
                    <mxGeometry x="420" y="1260" width="220" height="220" as="geometry"/>
                </mxCell>
                <mxCell id="28" value="" style="ellipse;whiteSpace=wrap;html=1;aspect=fixed;fillColor=#60a917;fontColor=#ffffff;strokeColor=#2D7600;" vertex="1" parent="1">
                    <mxGeometry x="660" y="1190" width="220" height="220" as="geometry"/>
                </mxCell>
                <mxCell id="29" value="view" style="text;html=1;strokeColor=none;fillColor=none;align=center;verticalAlign=middle;whiteSpace=wrap;rounded=0;fontSize=90;" vertex="1" parent="1">
                    <mxGeometry x="680" y="1260" width="190" height="80" as="geometry"/>
                </mxCell>
                <mxCell id="30" value="view" style="text;html=1;strokeColor=none;fillColor=none;align=center;verticalAlign=middle;whiteSpace=wrap;rounded=0;fontSize=90;" vertex="1" parent="1">
                    <mxGeometry x="475" y="1040" width="190" height="80" as="geometry"/>
                </mxCell>
                <mxCell id="31" value="view" style="text;html=1;strokeColor=none;fillColor=none;align=center;verticalAlign=middle;whiteSpace=wrap;rounded=0;fontSize=90;" vertex="1" parent="1">
                    <mxGeometry x="435" y="1340" width="190" height="80" as="geometry"/>
                </mxCell>
                <mxCell id="33" value="TEAM" style="text;html=1;strokeColor=none;fillColor=none;align=center;verticalAlign=middle;whiteSpace=wrap;rounded=0;fontSize=90;" vertex="1" parent="1">
                    <mxGeometry x="700" y="-30" width="280" height="80" as="geometry"/>
                </mxCell>
                <mxCell id="34" value="" style="ellipse;whiteSpace=wrap;html=1;aspect=fixed;fillColor=#f0a30a;fontColor=#000000;strokeColor=#BD7000;" vertex="1" parent="1">
                    <mxGeometry x="1940" y="1010" width="2140" height="2140" as="geometry"/>
                </mxCell>
                <mxCell id="35" value="" style="ellipse;whiteSpace=wrap;html=1;aspect=fixed;fillColor=#d80073;fontColor=#ffffff;strokeColor=#A50040;" vertex="1" parent="1">
                    <mxGeometry x="2290" y="1400" width="720" height="720" as="geometry"/>
                </mxCell>
                <mxCell id="36" value="" style="ellipse;whiteSpace=wrap;html=1;aspect=fixed;fillColor=#60a917;fontColor=#ffffff;strokeColor=#2D7600;" vertex="1" parent="1">
                    <mxGeometry x="2500" y="1490" width="220" height="220" as="geometry"/>
                </mxCell>
                <mxCell id="37" value="Projet" style="text;html=1;strokeColor=none;fillColor=none;align=center;verticalAlign=middle;whiteSpace=wrap;rounded=0;fontSize=90;" vertex="1" parent="1">
                    <mxGeometry x="2705" y="1610" width="280" height="80" as="geometry"/>
                </mxCell>
                <mxCell id="38" value="" style="ellipse;whiteSpace=wrap;html=1;aspect=fixed;fillColor=#60a917;fontColor=#ffffff;strokeColor=#2D7600;" vertex="1" parent="1">
                    <mxGeometry x="2460" y="1780" width="220" height="220" as="geometry"/>
                </mxCell>
                <mxCell id="39" value="" style="ellipse;whiteSpace=wrap;html=1;aspect=fixed;fillColor=#60a917;fontColor=#ffffff;strokeColor=#2D7600;" vertex="1" parent="1">
                    <mxGeometry x="2700" y="1710" width="220" height="220" as="geometry"/>
                </mxCell>
                <mxCell id="40" value="view" style="text;html=1;strokeColor=none;fillColor=none;align=center;verticalAlign=middle;whiteSpace=wrap;rounded=0;fontSize=90;" vertex="1" parent="1">
                    <mxGeometry x="2720" y="1780" width="190" height="80" as="geometry"/>
                </mxCell>
                <mxCell id="41" value="view" style="text;html=1;strokeColor=none;fillColor=none;align=center;verticalAlign=middle;whiteSpace=wrap;rounded=0;fontSize=90;" vertex="1" parent="1">
                    <mxGeometry x="2515" y="1560" width="190" height="80" as="geometry"/>
                </mxCell>
                <mxCell id="42" value="view" style="text;html=1;strokeColor=none;fillColor=none;align=center;verticalAlign=middle;whiteSpace=wrap;rounded=0;fontSize=90;" vertex="1" parent="1">
                    <mxGeometry x="2475" y="1860" width="190" height="80" as="geometry"/>
                </mxCell>
                <mxCell id="43" value="" style="ellipse;whiteSpace=wrap;html=1;aspect=fixed;fillColor=#d80073;fontColor=#ffffff;strokeColor=#A50040;" vertex="1" parent="1">
                    <mxGeometry x="3080" y="1630" width="720" height="720" as="geometry"/>
                </mxCell>
                <mxCell id="44" value="" style="ellipse;whiteSpace=wrap;html=1;aspect=fixed;fillColor=#60a917;fontColor=#ffffff;strokeColor=#2D7600;" vertex="1" parent="1">
                    <mxGeometry x="3290" y="1720" width="220" height="220" as="geometry"/>
                </mxCell>
                <mxCell id="45" value="Projet" style="text;html=1;strokeColor=none;fillColor=none;align=center;verticalAlign=middle;whiteSpace=wrap;rounded=0;fontSize=90;" vertex="1" parent="1">
                    <mxGeometry x="3495" y="1840" width="280" height="80" as="geometry"/>
                </mxCell>
                <mxCell id="46" value="" style="ellipse;whiteSpace=wrap;html=1;aspect=fixed;fillColor=#60a917;fontColor=#ffffff;strokeColor=#2D7600;" vertex="1" parent="1">
                    <mxGeometry x="3250" y="2010" width="220" height="220" as="geometry"/>
                </mxCell>
                <mxCell id="47" value="" style="ellipse;whiteSpace=wrap;html=1;aspect=fixed;fillColor=#60a917;fontColor=#ffffff;strokeColor=#2D7600;" vertex="1" parent="1">
                    <mxGeometry x="3490" y="1940" width="220" height="220" as="geometry"/>
                </mxCell>
                <mxCell id="48" value="view" style="text;html=1;strokeColor=none;fillColor=none;align=center;verticalAlign=middle;whiteSpace=wrap;rounded=0;fontSize=90;" vertex="1" parent="1">
                    <mxGeometry x="3510" y="2010" width="190" height="80" as="geometry"/>
                </mxCell>
                <mxCell id="49" value="view" style="text;html=1;strokeColor=none;fillColor=none;align=center;verticalAlign=middle;whiteSpace=wrap;rounded=0;fontSize=90;" vertex="1" parent="1">
                    <mxGeometry x="3305" y="1790" width="190" height="80" as="geometry"/>
                </mxCell>
                <mxCell id="50" value="view" style="text;html=1;strokeColor=none;fillColor=none;align=center;verticalAlign=middle;whiteSpace=wrap;rounded=0;fontSize=90;" vertex="1" parent="1">
                    <mxGeometry x="3265" y="2090" width="190" height="80" as="geometry"/>
                </mxCell>
                <mxCell id="51" value="" style="ellipse;whiteSpace=wrap;html=1;aspect=fixed;fillColor=#d80073;fontColor=#ffffff;strokeColor=#A50040;" vertex="1" parent="1">
                    <mxGeometry x="2440" y="2170" width="720" height="720" as="geometry"/>
                </mxCell>
                <mxCell id="52" value="" style="ellipse;whiteSpace=wrap;html=1;aspect=fixed;fillColor=#60a917;fontColor=#ffffff;strokeColor=#2D7600;" vertex="1" parent="1">
                    <mxGeometry x="2650" y="2260" width="220" height="220" as="geometry"/>
                </mxCell>
                <mxCell id="53" value="Projet" style="text;html=1;strokeColor=none;fillColor=none;align=center;verticalAlign=middle;whiteSpace=wrap;rounded=0;fontSize=90;" vertex="1" parent="1">
                    <mxGeometry x="2855" y="2380" width="280" height="80" as="geometry"/>
                </mxCell>
                <mxCell id="54" value="" style="ellipse;whiteSpace=wrap;html=1;aspect=fixed;fillColor=#60a917;fontColor=#ffffff;strokeColor=#2D7600;" vertex="1" parent="1">
                    <mxGeometry x="2610" y="2550" width="220" height="220" as="geometry"/>
                </mxCell>
                <mxCell id="55" value="" style="ellipse;whiteSpace=wrap;html=1;aspect=fixed;fillColor=#60a917;fontColor=#ffffff;strokeColor=#2D7600;" vertex="1" parent="1">
                    <mxGeometry x="2850" y="2480" width="220" height="220" as="geometry"/>
                </mxCell>
                <mxCell id="56" value="view" style="text;html=1;strokeColor=none;fillColor=none;align=center;verticalAlign=middle;whiteSpace=wrap;rounded=0;fontSize=90;" vertex="1" parent="1">
                    <mxGeometry x="2870" y="2550" width="190" height="80" as="geometry"/>
                </mxCell>
                <mxCell id="57" value="view" style="text;html=1;strokeColor=none;fillColor=none;align=center;verticalAlign=middle;whiteSpace=wrap;rounded=0;fontSize=90;" vertex="1" parent="1">
                    <mxGeometry x="2665" y="2330" width="190" height="80" as="geometry"/>
                </mxCell>
                <mxCell id="58" value="view" style="text;html=1;strokeColor=none;fillColor=none;align=center;verticalAlign=middle;whiteSpace=wrap;rounded=0;fontSize=90;" vertex="1" parent="1">
                    <mxGeometry x="2625" y="2630" width="190" height="80" as="geometry"/>
                </mxCell>
                <mxCell id="59" value="TEAM" style="text;html=1;strokeColor=none;fillColor=none;align=center;verticalAlign=middle;whiteSpace=wrap;rounded=0;fontSize=90;" vertex="1" parent="1">
                    <mxGeometry x="2890" y="1260" width="280" height="80" as="geometry"/>
                </mxCell>
                <mxCell id="60" value="" style="ellipse;whiteSpace=wrap;html=1;aspect=fixed;fillColor=#f0a30a;fontColor=#000000;strokeColor=#BD7000;" vertex="1" parent="1">
                    <mxGeometry x="-260" y="2130" width="2140" height="2140" as="geometry"/>
                </mxCell>
                <mxCell id="61" value="" style="ellipse;whiteSpace=wrap;html=1;aspect=fixed;fillColor=#d80073;fontColor=#ffffff;strokeColor=#A50040;" vertex="1" parent="1">
                    <mxGeometry x="90" y="2520" width="720" height="720" as="geometry"/>
                </mxCell>
                <mxCell id="62" value="" style="ellipse;whiteSpace=wrap;html=1;aspect=fixed;fillColor=#60a917;fontColor=#ffffff;strokeColor=#2D7600;" vertex="1" parent="1">
                    <mxGeometry x="300" y="2610" width="220" height="220" as="geometry"/>
                </mxCell>
                <mxCell id="63" value="Projet" style="text;html=1;strokeColor=none;fillColor=none;align=center;verticalAlign=middle;whiteSpace=wrap;rounded=0;fontSize=90;" vertex="1" parent="1">
                    <mxGeometry x="505" y="2730" width="280" height="80" as="geometry"/>
                </mxCell>
                <mxCell id="64" value="" style="ellipse;whiteSpace=wrap;html=1;aspect=fixed;fillColor=#60a917;fontColor=#ffffff;strokeColor=#2D7600;" vertex="1" parent="1">
                    <mxGeometry x="260" y="2900" width="220" height="220" as="geometry"/>
                </mxCell>
                <mxCell id="65" value="" style="ellipse;whiteSpace=wrap;html=1;aspect=fixed;fillColor=#60a917;fontColor=#ffffff;strokeColor=#2D7600;" vertex="1" parent="1">
                    <mxGeometry x="500" y="2830" width="220" height="220" as="geometry"/>
                </mxCell>
                <mxCell id="66" value="view" style="text;html=1;strokeColor=none;fillColor=none;align=center;verticalAlign=middle;whiteSpace=wrap;rounded=0;fontSize=90;" vertex="1" parent="1">
                    <mxGeometry x="520" y="2900" width="190" height="80" as="geometry"/>
                </mxCell>
                <mxCell id="67" value="view" style="text;html=1;strokeColor=none;fillColor=none;align=center;verticalAlign=middle;whiteSpace=wrap;rounded=0;fontSize=90;" vertex="1" parent="1">
                    <mxGeometry x="315" y="2680" width="190" height="80" as="geometry"/>
                </mxCell>
                <mxCell id="68" value="view" style="text;html=1;strokeColor=none;fillColor=none;align=center;verticalAlign=middle;whiteSpace=wrap;rounded=0;fontSize=90;" vertex="1" parent="1">
                    <mxGeometry x="275" y="2980" width="190" height="80" as="geometry"/>
                </mxCell>
                <mxCell id="69" value="" style="ellipse;whiteSpace=wrap;html=1;aspect=fixed;fillColor=#d80073;fontColor=#ffffff;strokeColor=#A50040;" vertex="1" parent="1">
                    <mxGeometry x="880" y="2750" width="720" height="720" as="geometry"/>
                </mxCell>
                <mxCell id="70" value="" style="ellipse;whiteSpace=wrap;html=1;aspect=fixed;fillColor=#60a917;fontColor=#ffffff;strokeColor=#2D7600;" vertex="1" parent="1">
                    <mxGeometry x="1090" y="2840" width="220" height="220" as="geometry"/>
                </mxCell>
                <mxCell id="71" value="Projet" style="text;html=1;strokeColor=none;fillColor=none;align=center;verticalAlign=middle;whiteSpace=wrap;rounded=0;fontSize=90;" vertex="1" parent="1">
                    <mxGeometry x="1295" y="2960" width="280" height="80" as="geometry"/>
                </mxCell>
                <mxCell id="72" value="" style="ellipse;whiteSpace=wrap;html=1;aspect=fixed;fillColor=#60a917;fontColor=#ffffff;strokeColor=#2D7600;" vertex="1" parent="1">
                    <mxGeometry x="1050" y="3130" width="220" height="220" as="geometry"/>
                </mxCell>
                <mxCell id="73" value="" style="ellipse;whiteSpace=wrap;html=1;aspect=fixed;fillColor=#60a917;fontColor=#ffffff;strokeColor=#2D7600;" vertex="1" parent="1">
                    <mxGeometry x="1290" y="3060" width="220" height="220" as="geometry"/>
                </mxCell>
                <mxCell id="74" value="view" style="text;html=1;strokeColor=none;fillColor=none;align=center;verticalAlign=middle;whiteSpace=wrap;rounded=0;fontSize=90;" vertex="1" parent="1">
                    <mxGeometry x="1310" y="3130" width="190" height="80" as="geometry"/>
                </mxCell>
                <mxCell id="75" value="view" style="text;html=1;strokeColor=none;fillColor=none;align=center;verticalAlign=middle;whiteSpace=wrap;rounded=0;fontSize=90;" vertex="1" parent="1">
                    <mxGeometry x="1105" y="2910" width="190" height="80" as="geometry"/>
                </mxCell>
                <mxCell id="76" value="view" style="text;html=1;strokeColor=none;fillColor=none;align=center;verticalAlign=middle;whiteSpace=wrap;rounded=0;fontSize=90;" vertex="1" parent="1">
                    <mxGeometry x="1065" y="3210" width="190" height="80" as="geometry"/>
                </mxCell>
                <mxCell id="77" value="" style="ellipse;whiteSpace=wrap;html=1;aspect=fixed;fillColor=#d80073;fontColor=#ffffff;strokeColor=#A50040;" vertex="1" parent="1">
                    <mxGeometry x="240" y="3290" width="720" height="720" as="geometry"/>
                </mxCell>
                <mxCell id="78" value="" style="ellipse;whiteSpace=wrap;html=1;aspect=fixed;fillColor=#60a917;fontColor=#ffffff;strokeColor=#2D7600;" vertex="1" parent="1">
                    <mxGeometry x="450" y="3380" width="220" height="220" as="geometry"/>
                </mxCell>
                <mxCell id="79" value="Projet" style="text;html=1;strokeColor=none;fillColor=none;align=center;verticalAlign=middle;whiteSpace=wrap;rounded=0;fontSize=90;" vertex="1" parent="1">
                    <mxGeometry x="655" y="3500" width="280" height="80" as="geometry"/>
                </mxCell>
                <mxCell id="80" value="" style="ellipse;whiteSpace=wrap;html=1;aspect=fixed;fillColor=#60a917;fontColor=#ffffff;strokeColor=#2D7600;" vertex="1" parent="1">
                    <mxGeometry x="410" y="3670" width="220" height="220" as="geometry"/>
                </mxCell>
                <mxCell id="81" value="" style="ellipse;whiteSpace=wrap;html=1;aspect=fixed;fillColor=#60a917;fontColor=#ffffff;strokeColor=#2D7600;" vertex="1" parent="1">
                    <mxGeometry x="650" y="3600" width="220" height="220" as="geometry"/>
                </mxCell>
                <mxCell id="82" value="view" style="text;html=1;strokeColor=none;fillColor=none;align=center;verticalAlign=middle;whiteSpace=wrap;rounded=0;fontSize=90;" vertex="1" parent="1">
                    <mxGeometry x="670" y="3670" width="190" height="80" as="geometry"/>
                </mxCell>
                <mxCell id="83" value="view" style="text;html=1;strokeColor=none;fillColor=none;align=center;verticalAlign=middle;whiteSpace=wrap;rounded=0;fontSize=90;" vertex="1" parent="1">
                    <mxGeometry x="465" y="3450" width="190" height="80" as="geometry"/>
                </mxCell>
                <mxCell id="84" value="view" style="text;html=1;strokeColor=none;fillColor=none;align=center;verticalAlign=middle;whiteSpace=wrap;rounded=0;fontSize=90;" vertex="1" parent="1">
                    <mxGeometry x="425" y="3750" width="190" height="80" as="geometry"/>
                </mxCell>
                <mxCell id="85" value="TEAM" style="text;html=1;strokeColor=none;fillColor=none;align=center;verticalAlign=middle;whiteSpace=wrap;rounded=0;fontSize=90;" vertex="1" parent="1">
                    <mxGeometry x="690" y="2380" width="280" height="80" as="geometry"/>
                </mxCell>
                <mxCell id="87" value="Squade" style="text;html=1;strokeColor=none;fillColor=none;align=center;verticalAlign=middle;whiteSpace=wrap;rounded=0;fontSize=500;" vertex="1" parent="1">
                    <mxGeometry x="1780" y="-140" width="2170" height="1000" as="geometry"/>
                </mxCell>
                <mxCell id="88" value="" style="ellipse;whiteSpace=wrap;html=1;aspect=fixed;fillColor=#76608a;fontColor=#ffffff;strokeColor=#432D57;" vertex="1" parent="1">
                    <mxGeometry x="4680" y="-520" width="5910" height="5910" as="geometry"/>
                </mxCell>
                <mxCell id="89" value="" style="ellipse;whiteSpace=wrap;html=1;aspect=fixed;fillColor=#f0a30a;fontColor=#000000;strokeColor=#BD7000;" vertex="1" parent="1">
                    <mxGeometry x="5920" y="120" width="2140" height="2140" as="geometry"/>
                </mxCell>
                <mxCell id="90" value="" style="ellipse;whiteSpace=wrap;html=1;aspect=fixed;fillColor=#d80073;fontColor=#ffffff;strokeColor=#A50040;" vertex="1" parent="1">
                    <mxGeometry x="6270" y="510" width="720" height="720" as="geometry"/>
                </mxCell>
                <mxCell id="91" value="" style="ellipse;whiteSpace=wrap;html=1;aspect=fixed;fillColor=#60a917;fontColor=#ffffff;strokeColor=#2D7600;" vertex="1" parent="1">
                    <mxGeometry x="6480" y="600" width="220" height="220" as="geometry"/>
                </mxCell>
                <mxCell id="92" value="Projet" style="text;html=1;strokeColor=none;fillColor=none;align=center;verticalAlign=middle;whiteSpace=wrap;rounded=0;fontSize=90;" vertex="1" parent="1">
                    <mxGeometry x="6685" y="720" width="280" height="80" as="geometry"/>
                </mxCell>
                <mxCell id="93" value="" style="ellipse;whiteSpace=wrap;html=1;aspect=fixed;fillColor=#60a917;fontColor=#ffffff;strokeColor=#2D7600;" vertex="1" parent="1">
                    <mxGeometry x="6440" y="890" width="220" height="220" as="geometry"/>
                </mxCell>
                <mxCell id="94" value="" style="ellipse;whiteSpace=wrap;html=1;aspect=fixed;fillColor=#60a917;fontColor=#ffffff;strokeColor=#2D7600;" vertex="1" parent="1">
                    <mxGeometry x="6680" y="820" width="220" height="220" as="geometry"/>
                </mxCell>
                <mxCell id="95" value="view" style="text;html=1;strokeColor=none;fillColor=none;align=center;verticalAlign=middle;whiteSpace=wrap;rounded=0;fontSize=90;" vertex="1" parent="1">
                    <mxGeometry x="6700" y="890" width="190" height="80" as="geometry"/>
                </mxCell>
                <mxCell id="96" value="view" style="text;html=1;strokeColor=none;fillColor=none;align=center;verticalAlign=middle;whiteSpace=wrap;rounded=0;fontSize=90;" vertex="1" parent="1">
                    <mxGeometry x="6495" y="670" width="190" height="80" as="geometry"/>
                </mxCell>
                <mxCell id="97" value="view" style="text;html=1;strokeColor=none;fillColor=none;align=center;verticalAlign=middle;whiteSpace=wrap;rounded=0;fontSize=90;" vertex="1" parent="1">
                    <mxGeometry x="6455" y="970" width="190" height="80" as="geometry"/>
                </mxCell>
                <mxCell id="98" value="" style="ellipse;whiteSpace=wrap;html=1;aspect=fixed;fillColor=#d80073;fontColor=#ffffff;strokeColor=#A50040;" vertex="1" parent="1">
                    <mxGeometry x="7060" y="740" width="720" height="720" as="geometry"/>
                </mxCell>
                <mxCell id="99" value="" style="ellipse;whiteSpace=wrap;html=1;aspect=fixed;fillColor=#60a917;fontColor=#ffffff;strokeColor=#2D7600;" vertex="1" parent="1">
                    <mxGeometry x="7270" y="830" width="220" height="220" as="geometry"/>
                </mxCell>
                <mxCell id="100" value="Projet" style="text;html=1;strokeColor=none;fillColor=none;align=center;verticalAlign=middle;whiteSpace=wrap;rounded=0;fontSize=90;" vertex="1" parent="1">
                    <mxGeometry x="7475" y="950" width="280" height="80" as="geometry"/>
                </mxCell>
                <mxCell id="101" value="" style="ellipse;whiteSpace=wrap;html=1;aspect=fixed;fillColor=#60a917;fontColor=#ffffff;strokeColor=#2D7600;" vertex="1" parent="1">
                    <mxGeometry x="7230" y="1120" width="220" height="220" as="geometry"/>
                </mxCell>
                <mxCell id="102" value="" style="ellipse;whiteSpace=wrap;html=1;aspect=fixed;fillColor=#60a917;fontColor=#ffffff;strokeColor=#2D7600;" vertex="1" parent="1">
                    <mxGeometry x="7470" y="1050" width="220" height="220" as="geometry"/>
                </mxCell>
                <mxCell id="103" value="view" style="text;html=1;strokeColor=none;fillColor=none;align=center;verticalAlign=middle;whiteSpace=wrap;rounded=0;fontSize=90;" vertex="1" parent="1">
                    <mxGeometry x="7490" y="1120" width="190" height="80" as="geometry"/>
                </mxCell>
                <mxCell id="104" value="view" style="text;html=1;strokeColor=none;fillColor=none;align=center;verticalAlign=middle;whiteSpace=wrap;rounded=0;fontSize=90;" vertex="1" parent="1">
                    <mxGeometry x="7285" y="900" width="190" height="80" as="geometry"/>
                </mxCell>
                <mxCell id="105" value="view" style="text;html=1;strokeColor=none;fillColor=none;align=center;verticalAlign=middle;whiteSpace=wrap;rounded=0;fontSize=90;" vertex="1" parent="1">
                    <mxGeometry x="7245" y="1200" width="190" height="80" as="geometry"/>
                </mxCell>
                <mxCell id="106" value="" style="ellipse;whiteSpace=wrap;html=1;aspect=fixed;fillColor=#d80073;fontColor=#ffffff;strokeColor=#A50040;" vertex="1" parent="1">
                    <mxGeometry x="6420" y="1280" width="720" height="720" as="geometry"/>
                </mxCell>
                <mxCell id="107" value="" style="ellipse;whiteSpace=wrap;html=1;aspect=fixed;fillColor=#60a917;fontColor=#ffffff;strokeColor=#2D7600;" vertex="1" parent="1">
                    <mxGeometry x="6630" y="1370" width="220" height="220" as="geometry"/>
                </mxCell>
                <mxCell id="108" value="Projet" style="text;html=1;strokeColor=none;fillColor=none;align=center;verticalAlign=middle;whiteSpace=wrap;rounded=0;fontSize=90;" vertex="1" parent="1">
                    <mxGeometry x="6835" y="1490" width="280" height="80" as="geometry"/>
                </mxCell>
                <mxCell id="109" value="" style="ellipse;whiteSpace=wrap;html=1;aspect=fixed;fillColor=#60a917;fontColor=#ffffff;strokeColor=#2D7600;" vertex="1" parent="1">
                    <mxGeometry x="6590" y="1660" width="220" height="220" as="geometry"/>
                </mxCell>
                <mxCell id="110" value="" style="ellipse;whiteSpace=wrap;html=1;aspect=fixed;fillColor=#60a917;fontColor=#ffffff;strokeColor=#2D7600;" vertex="1" parent="1">
                    <mxGeometry x="6830" y="1590" width="220" height="220" as="geometry"/>
                </mxCell>
                <mxCell id="111" value="view" style="text;html=1;strokeColor=none;fillColor=none;align=center;verticalAlign=middle;whiteSpace=wrap;rounded=0;fontSize=90;" vertex="1" parent="1">
                    <mxGeometry x="6850" y="1660" width="190" height="80" as="geometry"/>
                </mxCell>
                <mxCell id="112" value="view" style="text;html=1;strokeColor=none;fillColor=none;align=center;verticalAlign=middle;whiteSpace=wrap;rounded=0;fontSize=90;" vertex="1" parent="1">
                    <mxGeometry x="6645" y="1440" width="190" height="80" as="geometry"/>
                </mxCell>
                <mxCell id="113" value="view" style="text;html=1;strokeColor=none;fillColor=none;align=center;verticalAlign=middle;whiteSpace=wrap;rounded=0;fontSize=90;" vertex="1" parent="1">
                    <mxGeometry x="6605" y="1740" width="190" height="80" as="geometry"/>
                </mxCell>
                <mxCell id="114" value="TEAM" style="text;html=1;strokeColor=none;fillColor=none;align=center;verticalAlign=middle;whiteSpace=wrap;rounded=0;fontSize=90;" vertex="1" parent="1">
                    <mxGeometry x="6870" y="370" width="280" height="80" as="geometry"/>
                </mxCell>
                <mxCell id="115" value="" style="ellipse;whiteSpace=wrap;html=1;aspect=fixed;fillColor=#f0a30a;fontColor=#000000;strokeColor=#BD7000;" vertex="1" parent="1">
                    <mxGeometry x="8110" y="1410" width="2140" height="2140" as="geometry"/>
                </mxCell>
                <mxCell id="116" value="" style="ellipse;whiteSpace=wrap;html=1;aspect=fixed;fillColor=#d80073;fontColor=#ffffff;strokeColor=#A50040;" vertex="1" parent="1">
                    <mxGeometry x="8460" y="1800" width="720" height="720" as="geometry"/>
                </mxCell>
                <mxCell id="117" value="" style="ellipse;whiteSpace=wrap;html=1;aspect=fixed;fillColor=#60a917;fontColor=#ffffff;strokeColor=#2D7600;" vertex="1" parent="1">
                    <mxGeometry x="8670" y="1890" width="220" height="220" as="geometry"/>
                </mxCell>
                <mxCell id="118" value="Projet" style="text;html=1;strokeColor=none;fillColor=none;align=center;verticalAlign=middle;whiteSpace=wrap;rounded=0;fontSize=90;" vertex="1" parent="1">
                    <mxGeometry x="8875" y="2010" width="280" height="80" as="geometry"/>
                </mxCell>
                <mxCell id="119" value="" style="ellipse;whiteSpace=wrap;html=1;aspect=fixed;fillColor=#60a917;fontColor=#ffffff;strokeColor=#2D7600;" vertex="1" parent="1">
                    <mxGeometry x="8630" y="2180" width="220" height="220" as="geometry"/>
                </mxCell>
                <mxCell id="120" value="" style="ellipse;whiteSpace=wrap;html=1;aspect=fixed;fillColor=#60a917;fontColor=#ffffff;strokeColor=#2D7600;" vertex="1" parent="1">
                    <mxGeometry x="8870" y="2110" width="220" height="220" as="geometry"/>
                </mxCell>
                <mxCell id="121" value="view" style="text;html=1;strokeColor=none;fillColor=none;align=center;verticalAlign=middle;whiteSpace=wrap;rounded=0;fontSize=90;" vertex="1" parent="1">
                    <mxGeometry x="8890" y="2180" width="190" height="80" as="geometry"/>
                </mxCell>
                <mxCell id="122" value="view" style="text;html=1;strokeColor=none;fillColor=none;align=center;verticalAlign=middle;whiteSpace=wrap;rounded=0;fontSize=90;" vertex="1" parent="1">
                    <mxGeometry x="8685" y="1960" width="190" height="80" as="geometry"/>
                </mxCell>
                <mxCell id="123" value="view" style="text;html=1;strokeColor=none;fillColor=none;align=center;verticalAlign=middle;whiteSpace=wrap;rounded=0;fontSize=90;" vertex="1" parent="1">
                    <mxGeometry x="8645" y="2260" width="190" height="80" as="geometry"/>
                </mxCell>
                <mxCell id="124" value="" style="ellipse;whiteSpace=wrap;html=1;aspect=fixed;fillColor=#d80073;fontColor=#ffffff;strokeColor=#A50040;" vertex="1" parent="1">
                    <mxGeometry x="9250" y="2030" width="720" height="720" as="geometry"/>
                </mxCell>
                <mxCell id="125" value="" style="ellipse;whiteSpace=wrap;html=1;aspect=fixed;fillColor=#60a917;fontColor=#ffffff;strokeColor=#2D7600;" vertex="1" parent="1">
                    <mxGeometry x="9460" y="2120" width="220" height="220" as="geometry"/>
                </mxCell>
                <mxCell id="126" value="Projet" style="text;html=1;strokeColor=none;fillColor=none;align=center;verticalAlign=middle;whiteSpace=wrap;rounded=0;fontSize=90;" vertex="1" parent="1">
                    <mxGeometry x="9665" y="2240" width="280" height="80" as="geometry"/>
                </mxCell>
                <mxCell id="127" value="" style="ellipse;whiteSpace=wrap;html=1;aspect=fixed;fillColor=#60a917;fontColor=#ffffff;strokeColor=#2D7600;" vertex="1" parent="1">
                    <mxGeometry x="9420" y="2410" width="220" height="220" as="geometry"/>
                </mxCell>
                <mxCell id="128" value="" style="ellipse;whiteSpace=wrap;html=1;aspect=fixed;fillColor=#60a917;fontColor=#ffffff;strokeColor=#2D7600;" vertex="1" parent="1">
                    <mxGeometry x="9660" y="2340" width="220" height="220" as="geometry"/>
                </mxCell>
                <mxCell id="129" value="view" style="text;html=1;strokeColor=none;fillColor=none;align=center;verticalAlign=middle;whiteSpace=wrap;rounded=0;fontSize=90;" vertex="1" parent="1">
                    <mxGeometry x="9680" y="2410" width="190" height="80" as="geometry"/>
                </mxCell>
                <mxCell id="130" value="view" style="text;html=1;strokeColor=none;fillColor=none;align=center;verticalAlign=middle;whiteSpace=wrap;rounded=0;fontSize=90;" vertex="1" parent="1">
                    <mxGeometry x="9475" y="2190" width="190" height="80" as="geometry"/>
                </mxCell>
                <mxCell id="131" value="view" style="text;html=1;strokeColor=none;fillColor=none;align=center;verticalAlign=middle;whiteSpace=wrap;rounded=0;fontSize=90;" vertex="1" parent="1">
                    <mxGeometry x="9435" y="2490" width="190" height="80" as="geometry"/>
                </mxCell>
                <mxCell id="132" value="" style="ellipse;whiteSpace=wrap;html=1;aspect=fixed;fillColor=#d80073;fontColor=#ffffff;strokeColor=#A50040;" vertex="1" parent="1">
                    <mxGeometry x="8610" y="2570" width="720" height="720" as="geometry"/>
                </mxCell>
                <mxCell id="133" value="" style="ellipse;whiteSpace=wrap;html=1;aspect=fixed;fillColor=#60a917;fontColor=#ffffff;strokeColor=#2D7600;" vertex="1" parent="1">
                    <mxGeometry x="8820" y="2660" width="220" height="220" as="geometry"/>
                </mxCell>
                <mxCell id="134" value="Projet" style="text;html=1;strokeColor=none;fillColor=none;align=center;verticalAlign=middle;whiteSpace=wrap;rounded=0;fontSize=90;" vertex="1" parent="1">
                    <mxGeometry x="9025" y="2780" width="280" height="80" as="geometry"/>
                </mxCell>
                <mxCell id="135" value="" style="ellipse;whiteSpace=wrap;html=1;aspect=fixed;fillColor=#60a917;fontColor=#ffffff;strokeColor=#2D7600;" vertex="1" parent="1">
                    <mxGeometry x="8780" y="2950" width="220" height="220" as="geometry"/>
                </mxCell>
                <mxCell id="136" value="" style="ellipse;whiteSpace=wrap;html=1;aspect=fixed;fillColor=#60a917;fontColor=#ffffff;strokeColor=#2D7600;" vertex="1" parent="1">
                    <mxGeometry x="9020" y="2880" width="220" height="220" as="geometry"/>
                </mxCell>
                <mxCell id="137" value="view" style="text;html=1;strokeColor=none;fillColor=none;align=center;verticalAlign=middle;whiteSpace=wrap;rounded=0;fontSize=90;" vertex="1" parent="1">
                    <mxGeometry x="9040" y="2950" width="190" height="80" as="geometry"/>
                </mxCell>
                <mxCell id="138" value="view" style="text;html=1;strokeColor=none;fillColor=none;align=center;verticalAlign=middle;whiteSpace=wrap;rounded=0;fontSize=90;" vertex="1" parent="1">
                    <mxGeometry x="8835" y="2730" width="190" height="80" as="geometry"/>
                </mxCell>
                <mxCell id="139" value="view" style="text;html=1;strokeColor=none;fillColor=none;align=center;verticalAlign=middle;whiteSpace=wrap;rounded=0;fontSize=90;" vertex="1" parent="1">
                    <mxGeometry x="8795" y="3030" width="190" height="80" as="geometry"/>
                </mxCell>
                <mxCell id="140" value="TEAM" style="text;html=1;strokeColor=none;fillColor=none;align=center;verticalAlign=middle;whiteSpace=wrap;rounded=0;fontSize=90;" vertex="1" parent="1">
                    <mxGeometry x="9060" y="1660" width="280" height="80" as="geometry"/>
                </mxCell>
                <mxCell id="141" value="" style="ellipse;whiteSpace=wrap;html=1;aspect=fixed;fillColor=#f0a30a;fontColor=#000000;strokeColor=#BD7000;" vertex="1" parent="1">
                    <mxGeometry x="5910" y="2530" width="2140" height="2140" as="geometry"/>
                </mxCell>
                <mxCell id="142" value="" style="ellipse;whiteSpace=wrap;html=1;aspect=fixed;fillColor=#d80073;fontColor=#ffffff;strokeColor=#A50040;" vertex="1" parent="1">
                    <mxGeometry x="6260" y="2920" width="720" height="720" as="geometry"/>
                </mxCell>
                <mxCell id="143" value="" style="ellipse;whiteSpace=wrap;html=1;aspect=fixed;fillColor=#60a917;fontColor=#ffffff;strokeColor=#2D7600;" vertex="1" parent="1">
                    <mxGeometry x="6470" y="3010" width="220" height="220" as="geometry"/>
                </mxCell>
                <mxCell id="144" value="Projet" style="text;html=1;strokeColor=none;fillColor=none;align=center;verticalAlign=middle;whiteSpace=wrap;rounded=0;fontSize=90;" vertex="1" parent="1">
                    <mxGeometry x="6675" y="3130" width="280" height="80" as="geometry"/>
                </mxCell>
                <mxCell id="145" value="" style="ellipse;whiteSpace=wrap;html=1;aspect=fixed;fillColor=#60a917;fontColor=#ffffff;strokeColor=#2D7600;" vertex="1" parent="1">
                    <mxGeometry x="6430" y="3300" width="220" height="220" as="geometry"/>
                </mxCell>
                <mxCell id="146" value="" style="ellipse;whiteSpace=wrap;html=1;aspect=fixed;fillColor=#60a917;fontColor=#ffffff;strokeColor=#2D7600;" vertex="1" parent="1">
                    <mxGeometry x="6670" y="3230" width="220" height="220" as="geometry"/>
                </mxCell>
                <mxCell id="147" value="view" style="text;html=1;strokeColor=none;fillColor=none;align=center;verticalAlign=middle;whiteSpace=wrap;rounded=0;fontSize=90;" vertex="1" parent="1">
                    <mxGeometry x="6690" y="3300" width="190" height="80" as="geometry"/>
                </mxCell>
                <mxCell id="148" value="view" style="text;html=1;strokeColor=none;fillColor=none;align=center;verticalAlign=middle;whiteSpace=wrap;rounded=0;fontSize=90;" vertex="1" parent="1">
                    <mxGeometry x="6485" y="3080" width="190" height="80" as="geometry"/>
                </mxCell>
                <mxCell id="149" value="view" style="text;html=1;strokeColor=none;fillColor=none;align=center;verticalAlign=middle;whiteSpace=wrap;rounded=0;fontSize=90;" vertex="1" parent="1">
                    <mxGeometry x="6445" y="3380" width="190" height="80" as="geometry"/>
                </mxCell>
                <mxCell id="150" value="" style="ellipse;whiteSpace=wrap;html=1;aspect=fixed;fillColor=#d80073;fontColor=#ffffff;strokeColor=#A50040;" vertex="1" parent="1">
                    <mxGeometry x="7050" y="3150" width="720" height="720" as="geometry"/>
                </mxCell>
                <mxCell id="151" value="" style="ellipse;whiteSpace=wrap;html=1;aspect=fixed;fillColor=#60a917;fontColor=#ffffff;strokeColor=#2D7600;" vertex="1" parent="1">
                    <mxGeometry x="7260" y="3240" width="220" height="220" as="geometry"/>
                </mxCell>
                <mxCell id="152" value="Projet" style="text;html=1;strokeColor=none;fillColor=none;align=center;verticalAlign=middle;whiteSpace=wrap;rounded=0;fontSize=90;" vertex="1" parent="1">
                    <mxGeometry x="7465" y="3360" width="280" height="80" as="geometry"/>
                </mxCell>
                <mxCell id="153" value="" style="ellipse;whiteSpace=wrap;html=1;aspect=fixed;fillColor=#60a917;fontColor=#ffffff;strokeColor=#2D7600;" vertex="1" parent="1">
                    <mxGeometry x="7220" y="3530" width="220" height="220" as="geometry"/>
                </mxCell>
                <mxCell id="154" value="" style="ellipse;whiteSpace=wrap;html=1;aspect=fixed;fillColor=#60a917;fontColor=#ffffff;strokeColor=#2D7600;" vertex="1" parent="1">
                    <mxGeometry x="7460" y="3460" width="220" height="220" as="geometry"/>
                </mxCell>
                <mxCell id="155" value="view" style="text;html=1;strokeColor=none;fillColor=none;align=center;verticalAlign=middle;whiteSpace=wrap;rounded=0;fontSize=90;" vertex="1" parent="1">
                    <mxGeometry x="7480" y="3530" width="190" height="80" as="geometry"/>
                </mxCell>
                <mxCell id="156" value="view" style="text;html=1;strokeColor=none;fillColor=none;align=center;verticalAlign=middle;whiteSpace=wrap;rounded=0;fontSize=90;" vertex="1" parent="1">
                    <mxGeometry x="7275" y="3310" width="190" height="80" as="geometry"/>
                </mxCell>
                <mxCell id="157" value="view" style="text;html=1;strokeColor=none;fillColor=none;align=center;verticalAlign=middle;whiteSpace=wrap;rounded=0;fontSize=90;" vertex="1" parent="1">
                    <mxGeometry x="7235" y="3610" width="190" height="80" as="geometry"/>
                </mxCell>
                <mxCell id="158" value="" style="ellipse;whiteSpace=wrap;html=1;aspect=fixed;fillColor=#d80073;fontColor=#ffffff;strokeColor=#A50040;" vertex="1" parent="1">
                    <mxGeometry x="6410" y="3690" width="720" height="720" as="geometry"/>
                </mxCell>
                <mxCell id="159" value="" style="ellipse;whiteSpace=wrap;html=1;aspect=fixed;fillColor=#60a917;fontColor=#ffffff;strokeColor=#2D7600;" vertex="1" parent="1">
                    <mxGeometry x="6620" y="3780" width="220" height="220" as="geometry"/>
                </mxCell>
                <mxCell id="160" value="Projet" style="text;html=1;strokeColor=none;fillColor=none;align=center;verticalAlign=middle;whiteSpace=wrap;rounded=0;fontSize=90;" vertex="1" parent="1">
                    <mxGeometry x="6825" y="3900" width="280" height="80" as="geometry"/>
                </mxCell>
                <mxCell id="161" value="" style="ellipse;whiteSpace=wrap;html=1;aspect=fixed;fillColor=#60a917;fontColor=#ffffff;strokeColor=#2D7600;" vertex="1" parent="1">
                    <mxGeometry x="6580" y="4070" width="220" height="220" as="geometry"/>
                </mxCell>
                <mxCell id="162" value="" style="ellipse;whiteSpace=wrap;html=1;aspect=fixed;fillColor=#60a917;fontColor=#ffffff;strokeColor=#2D7600;" vertex="1" parent="1">
                    <mxGeometry x="6820" y="4000" width="220" height="220" as="geometry"/>
                </mxCell>
                <mxCell id="163" value="view" style="text;html=1;strokeColor=none;fillColor=none;align=center;verticalAlign=middle;whiteSpace=wrap;rounded=0;fontSize=90;" vertex="1" parent="1">
                    <mxGeometry x="6840" y="4070" width="190" height="80" as="geometry"/>
                </mxCell>
                <mxCell id="164" value="view" style="text;html=1;strokeColor=none;fillColor=none;align=center;verticalAlign=middle;whiteSpace=wrap;rounded=0;fontSize=90;" vertex="1" parent="1">
                    <mxGeometry x="6635" y="3850" width="190" height="80" as="geometry"/>
                </mxCell>
                <mxCell id="165" value="view" style="text;html=1;strokeColor=none;fillColor=none;align=center;verticalAlign=middle;whiteSpace=wrap;rounded=0;fontSize=90;" vertex="1" parent="1">
                    <mxGeometry x="6595" y="4150" width="190" height="80" as="geometry"/>
                </mxCell>
                <mxCell id="166" value="TEAM" style="text;html=1;strokeColor=none;fillColor=none;align=center;verticalAlign=middle;whiteSpace=wrap;rounded=0;fontSize=90;" vertex="1" parent="1">
                    <mxGeometry x="6860" y="2780" width="280" height="80" as="geometry"/>
                </mxCell>
                <mxCell id="168" value="" style="ellipse;whiteSpace=wrap;html=1;aspect=fixed;fillColor=#76608a;fontColor=#ffffff;strokeColor=#432D57;" vertex="1" parent="1">
                    <mxGeometry x="1480" y="4810" width="5910" height="5910" as="geometry"/>
                </mxCell>
                <mxCell id="169" value="" style="ellipse;whiteSpace=wrap;html=1;aspect=fixed;fillColor=#f0a30a;fontColor=#000000;strokeColor=#BD7000;" vertex="1" parent="1">
                    <mxGeometry x="2720" y="5450" width="2140" height="2140" as="geometry"/>
                </mxCell>
                <mxCell id="170" value="" style="ellipse;whiteSpace=wrap;html=1;aspect=fixed;fillColor=#d80073;fontColor=#ffffff;strokeColor=#A50040;" vertex="1" parent="1">
                    <mxGeometry x="3070" y="5840" width="720" height="720" as="geometry"/>
                </mxCell>
                <mxCell id="171" value="" style="ellipse;whiteSpace=wrap;html=1;aspect=fixed;fillColor=#60a917;fontColor=#ffffff;strokeColor=#2D7600;" vertex="1" parent="1">
                    <mxGeometry x="3280" y="5930" width="220" height="220" as="geometry"/>
                </mxCell>
                <mxCell id="172" value="Projet" style="text;html=1;strokeColor=none;fillColor=none;align=center;verticalAlign=middle;whiteSpace=wrap;rounded=0;fontSize=90;" vertex="1" parent="1">
                    <mxGeometry x="3485" y="6050" width="280" height="80" as="geometry"/>
                </mxCell>
                <mxCell id="173" value="" style="ellipse;whiteSpace=wrap;html=1;aspect=fixed;fillColor=#60a917;fontColor=#ffffff;strokeColor=#2D7600;" vertex="1" parent="1">
                    <mxGeometry x="3240" y="6220" width="220" height="220" as="geometry"/>
                </mxCell>
                <mxCell id="174" value="" style="ellipse;whiteSpace=wrap;html=1;aspect=fixed;fillColor=#60a917;fontColor=#ffffff;strokeColor=#2D7600;" vertex="1" parent="1">
                    <mxGeometry x="3480" y="6150" width="220" height="220" as="geometry"/>
                </mxCell>
                <mxCell id="175" value="view" style="text;html=1;strokeColor=none;fillColor=none;align=center;verticalAlign=middle;whiteSpace=wrap;rounded=0;fontSize=90;" vertex="1" parent="1">
                    <mxGeometry x="3500" y="6220" width="190" height="80" as="geometry"/>
                </mxCell>
                <mxCell id="176" value="view" style="text;html=1;strokeColor=none;fillColor=none;align=center;verticalAlign=middle;whiteSpace=wrap;rounded=0;fontSize=90;" vertex="1" parent="1">
                    <mxGeometry x="3295" y="6000" width="190" height="80" as="geometry"/>
                </mxCell>
                <mxCell id="177" value="view" style="text;html=1;strokeColor=none;fillColor=none;align=center;verticalAlign=middle;whiteSpace=wrap;rounded=0;fontSize=90;" vertex="1" parent="1">
                    <mxGeometry x="3255" y="6300" width="190" height="80" as="geometry"/>
                </mxCell>
                <mxCell id="178" value="" style="ellipse;whiteSpace=wrap;html=1;aspect=fixed;fillColor=#d80073;fontColor=#ffffff;strokeColor=#A50040;" vertex="1" parent="1">
                    <mxGeometry x="3860" y="6070" width="720" height="720" as="geometry"/>
                </mxCell>
                <mxCell id="179" value="" style="ellipse;whiteSpace=wrap;html=1;aspect=fixed;fillColor=#60a917;fontColor=#ffffff;strokeColor=#2D7600;" vertex="1" parent="1">
                    <mxGeometry x="4070" y="6160" width="220" height="220" as="geometry"/>
                </mxCell>
                <mxCell id="180" value="Projet" style="text;html=1;strokeColor=none;fillColor=none;align=center;verticalAlign=middle;whiteSpace=wrap;rounded=0;fontSize=90;" vertex="1" parent="1">
                    <mxGeometry x="4275" y="6280" width="280" height="80" as="geometry"/>
                </mxCell>
                <mxCell id="181" value="" style="ellipse;whiteSpace=wrap;html=1;aspect=fixed;fillColor=#60a917;fontColor=#ffffff;strokeColor=#2D7600;" vertex="1" parent="1">
                    <mxGeometry x="4030" y="6450" width="220" height="220" as="geometry"/>
                </mxCell>
                <mxCell id="182" value="" style="ellipse;whiteSpace=wrap;html=1;aspect=fixed;fillColor=#60a917;fontColor=#ffffff;strokeColor=#2D7600;" vertex="1" parent="1">
                    <mxGeometry x="4270" y="6380" width="220" height="220" as="geometry"/>
                </mxCell>
                <mxCell id="183" value="view" style="text;html=1;strokeColor=none;fillColor=none;align=center;verticalAlign=middle;whiteSpace=wrap;rounded=0;fontSize=90;" vertex="1" parent="1">
                    <mxGeometry x="4290" y="6450" width="190" height="80" as="geometry"/>
                </mxCell>
                <mxCell id="184" value="view" style="text;html=1;strokeColor=none;fillColor=none;align=center;verticalAlign=middle;whiteSpace=wrap;rounded=0;fontSize=90;" vertex="1" parent="1">
                    <mxGeometry x="4085" y="6230" width="190" height="80" as="geometry"/>
                </mxCell>
                <mxCell id="185" value="view" style="text;html=1;strokeColor=none;fillColor=none;align=center;verticalAlign=middle;whiteSpace=wrap;rounded=0;fontSize=90;" vertex="1" parent="1">
                    <mxGeometry x="4045" y="6530" width="190" height="80" as="geometry"/>
                </mxCell>
                <mxCell id="186" value="" style="ellipse;whiteSpace=wrap;html=1;aspect=fixed;fillColor=#d80073;fontColor=#ffffff;strokeColor=#A50040;" vertex="1" parent="1">
                    <mxGeometry x="3220" y="6610" width="720" height="720" as="geometry"/>
                </mxCell>
                <mxCell id="187" value="" style="ellipse;whiteSpace=wrap;html=1;aspect=fixed;fillColor=#60a917;fontColor=#ffffff;strokeColor=#2D7600;" vertex="1" parent="1">
                    <mxGeometry x="3430" y="6700" width="220" height="220" as="geometry"/>
                </mxCell>
                <mxCell id="188" value="Projet" style="text;html=1;strokeColor=none;fillColor=none;align=center;verticalAlign=middle;whiteSpace=wrap;rounded=0;fontSize=90;" vertex="1" parent="1">
                    <mxGeometry x="3635" y="6820" width="280" height="80" as="geometry"/>
                </mxCell>
                <mxCell id="189" value="" style="ellipse;whiteSpace=wrap;html=1;aspect=fixed;fillColor=#60a917;fontColor=#ffffff;strokeColor=#2D7600;" vertex="1" parent="1">
                    <mxGeometry x="3390" y="6990" width="220" height="220" as="geometry"/>
                </mxCell>
                <mxCell id="190" value="" style="ellipse;whiteSpace=wrap;html=1;aspect=fixed;fillColor=#60a917;fontColor=#ffffff;strokeColor=#2D7600;" vertex="1" parent="1">
                    <mxGeometry x="3630" y="6920" width="220" height="220" as="geometry"/>
                </mxCell>
                <mxCell id="191" value="view" style="text;html=1;strokeColor=none;fillColor=none;align=center;verticalAlign=middle;whiteSpace=wrap;rounded=0;fontSize=90;" vertex="1" parent="1">
                    <mxGeometry x="3650" y="6990" width="190" height="80" as="geometry"/>
                </mxCell>
                <mxCell id="192" value="view" style="text;html=1;strokeColor=none;fillColor=none;align=center;verticalAlign=middle;whiteSpace=wrap;rounded=0;fontSize=90;" vertex="1" parent="1">
                    <mxGeometry x="3445" y="6770" width="190" height="80" as="geometry"/>
                </mxCell>
                <mxCell id="193" value="view" style="text;html=1;strokeColor=none;fillColor=none;align=center;verticalAlign=middle;whiteSpace=wrap;rounded=0;fontSize=90;" vertex="1" parent="1">
                    <mxGeometry x="3405" y="7070" width="190" height="80" as="geometry"/>
                </mxCell>
                <mxCell id="194" value="TEAM" style="text;html=1;strokeColor=none;fillColor=none;align=center;verticalAlign=middle;whiteSpace=wrap;rounded=0;fontSize=90;" vertex="1" parent="1">
                    <mxGeometry x="3670" y="5700" width="280" height="80" as="geometry"/>
                </mxCell>
                <mxCell id="195" value="" style="ellipse;whiteSpace=wrap;html=1;aspect=fixed;fillColor=#f0a30a;fontColor=#000000;strokeColor=#BD7000;" vertex="1" parent="1">
                    <mxGeometry x="4910" y="6740" width="2140" height="2140" as="geometry"/>
                </mxCell>
                <mxCell id="196" value="" style="ellipse;whiteSpace=wrap;html=1;aspect=fixed;fillColor=#d80073;fontColor=#ffffff;strokeColor=#A50040;" vertex="1" parent="1">
                    <mxGeometry x="5260" y="7130" width="720" height="720" as="geometry"/>
                </mxCell>
                <mxCell id="197" value="" style="ellipse;whiteSpace=wrap;html=1;aspect=fixed;fillColor=#60a917;fontColor=#ffffff;strokeColor=#2D7600;" vertex="1" parent="1">
                    <mxGeometry x="5470" y="7220" width="220" height="220" as="geometry"/>
                </mxCell>
                <mxCell id="198" value="Projet" style="text;html=1;strokeColor=none;fillColor=none;align=center;verticalAlign=middle;whiteSpace=wrap;rounded=0;fontSize=90;" vertex="1" parent="1">
                    <mxGeometry x="5675" y="7340" width="280" height="80" as="geometry"/>
                </mxCell>
                <mxCell id="199" value="" style="ellipse;whiteSpace=wrap;html=1;aspect=fixed;fillColor=#60a917;fontColor=#ffffff;strokeColor=#2D7600;" vertex="1" parent="1">
                    <mxGeometry x="5430" y="7510" width="220" height="220" as="geometry"/>
                </mxCell>
                <mxCell id="200" value="" style="ellipse;whiteSpace=wrap;html=1;aspect=fixed;fillColor=#60a917;fontColor=#ffffff;strokeColor=#2D7600;" vertex="1" parent="1">
                    <mxGeometry x="5670" y="7440" width="220" height="220" as="geometry"/>
                </mxCell>
                <mxCell id="201" value="view" style="text;html=1;strokeColor=none;fillColor=none;align=center;verticalAlign=middle;whiteSpace=wrap;rounded=0;fontSize=90;" vertex="1" parent="1">
                    <mxGeometry x="5690" y="7510" width="190" height="80" as="geometry"/>
                </mxCell>
                <mxCell id="202" value="view" style="text;html=1;strokeColor=none;fillColor=none;align=center;verticalAlign=middle;whiteSpace=wrap;rounded=0;fontSize=90;" vertex="1" parent="1">
                    <mxGeometry x="5485" y="7290" width="190" height="80" as="geometry"/>
                </mxCell>
                <mxCell id="203" value="view" style="text;html=1;strokeColor=none;fillColor=none;align=center;verticalAlign=middle;whiteSpace=wrap;rounded=0;fontSize=90;" vertex="1" parent="1">
                    <mxGeometry x="5445" y="7590" width="190" height="80" as="geometry"/>
                </mxCell>
                <mxCell id="204" value="" style="ellipse;whiteSpace=wrap;html=1;aspect=fixed;fillColor=#d80073;fontColor=#ffffff;strokeColor=#A50040;" vertex="1" parent="1">
                    <mxGeometry x="6050" y="7360" width="720" height="720" as="geometry"/>
                </mxCell>
                <mxCell id="205" value="" style="ellipse;whiteSpace=wrap;html=1;aspect=fixed;fillColor=#60a917;fontColor=#ffffff;strokeColor=#2D7600;" vertex="1" parent="1">
                    <mxGeometry x="6260" y="7450" width="220" height="220" as="geometry"/>
                </mxCell>
                <mxCell id="206" value="Projet" style="text;html=1;strokeColor=none;fillColor=none;align=center;verticalAlign=middle;whiteSpace=wrap;rounded=0;fontSize=90;" vertex="1" parent="1">
                    <mxGeometry x="6465" y="7570" width="280" height="80" as="geometry"/>
                </mxCell>
                <mxCell id="207" value="" style="ellipse;whiteSpace=wrap;html=1;aspect=fixed;fillColor=#60a917;fontColor=#ffffff;strokeColor=#2D7600;" vertex="1" parent="1">
                    <mxGeometry x="6220" y="7740" width="220" height="220" as="geometry"/>
                </mxCell>
                <mxCell id="208" value="" style="ellipse;whiteSpace=wrap;html=1;aspect=fixed;fillColor=#60a917;fontColor=#ffffff;strokeColor=#2D7600;" vertex="1" parent="1">
                    <mxGeometry x="6460" y="7670" width="220" height="220" as="geometry"/>
                </mxCell>
                <mxCell id="209" value="view" style="text;html=1;strokeColor=none;fillColor=none;align=center;verticalAlign=middle;whiteSpace=wrap;rounded=0;fontSize=90;" vertex="1" parent="1">
                    <mxGeometry x="6480" y="7740" width="190" height="80" as="geometry"/>
                </mxCell>
                <mxCell id="210" value="view" style="text;html=1;strokeColor=none;fillColor=none;align=center;verticalAlign=middle;whiteSpace=wrap;rounded=0;fontSize=90;" vertex="1" parent="1">
                    <mxGeometry x="6275" y="7520" width="190" height="80" as="geometry"/>
                </mxCell>
                <mxCell id="211" value="view" style="text;html=1;strokeColor=none;fillColor=none;align=center;verticalAlign=middle;whiteSpace=wrap;rounded=0;fontSize=90;" vertex="1" parent="1">
                    <mxGeometry x="6235" y="7820" width="190" height="80" as="geometry"/>
                </mxCell>
                <mxCell id="212" value="" style="ellipse;whiteSpace=wrap;html=1;aspect=fixed;fillColor=#d80073;fontColor=#ffffff;strokeColor=#A50040;" vertex="1" parent="1">
                    <mxGeometry x="5410" y="7900" width="720" height="720" as="geometry"/>
                </mxCell>
                <mxCell id="213" value="" style="ellipse;whiteSpace=wrap;html=1;aspect=fixed;fillColor=#60a917;fontColor=#ffffff;strokeColor=#2D7600;" vertex="1" parent="1">
                    <mxGeometry x="5620" y="7990" width="220" height="220" as="geometry"/>
                </mxCell>
                <mxCell id="214" value="Projet" style="text;html=1;strokeColor=none;fillColor=none;align=center;verticalAlign=middle;whiteSpace=wrap;rounded=0;fontSize=90;" vertex="1" parent="1">
                    <mxGeometry x="5825" y="8110" width="280" height="80" as="geometry"/>
                </mxCell>
                <mxCell id="215" value="" style="ellipse;whiteSpace=wrap;html=1;aspect=fixed;fillColor=#60a917;fontColor=#ffffff;strokeColor=#2D7600;" vertex="1" parent="1">
                    <mxGeometry x="5580" y="8280" width="220" height="220" as="geometry"/>
                </mxCell>
                <mxCell id="216" value="" style="ellipse;whiteSpace=wrap;html=1;aspect=fixed;fillColor=#60a917;fontColor=#ffffff;strokeColor=#2D7600;" vertex="1" parent="1">
                    <mxGeometry x="5820" y="8210" width="220" height="220" as="geometry"/>
                </mxCell>
                <mxCell id="217" value="view" style="text;html=1;strokeColor=none;fillColor=none;align=center;verticalAlign=middle;whiteSpace=wrap;rounded=0;fontSize=90;" vertex="1" parent="1">
                    <mxGeometry x="5840" y="8280" width="190" height="80" as="geometry"/>
                </mxCell>
                <mxCell id="218" value="view" style="text;html=1;strokeColor=none;fillColor=none;align=center;verticalAlign=middle;whiteSpace=wrap;rounded=0;fontSize=90;" vertex="1" parent="1">
                    <mxGeometry x="5635" y="8060" width="190" height="80" as="geometry"/>
                </mxCell>
                <mxCell id="219" value="view" style="text;html=1;strokeColor=none;fillColor=none;align=center;verticalAlign=middle;whiteSpace=wrap;rounded=0;fontSize=90;" vertex="1" parent="1">
                    <mxGeometry x="5595" y="8360" width="190" height="80" as="geometry"/>
                </mxCell>
                <mxCell id="220" value="TEAM" style="text;html=1;strokeColor=none;fillColor=none;align=center;verticalAlign=middle;whiteSpace=wrap;rounded=0;fontSize=90;" vertex="1" parent="1">
                    <mxGeometry x="5860" y="6990" width="280" height="80" as="geometry"/>
                </mxCell>
                <mxCell id="221" value="" style="ellipse;whiteSpace=wrap;html=1;aspect=fixed;fillColor=#f0a30a;fontColor=#000000;strokeColor=#BD7000;" vertex="1" parent="1">
                    <mxGeometry x="2710" y="7860" width="2140" height="2140" as="geometry"/>
                </mxCell>
                <mxCell id="222" value="" style="ellipse;whiteSpace=wrap;html=1;aspect=fixed;fillColor=#d80073;fontColor=#ffffff;strokeColor=#A50040;" vertex="1" parent="1">
                    <mxGeometry x="3060" y="8250" width="720" height="720" as="geometry"/>
                </mxCell>
                <mxCell id="223" value="" style="ellipse;whiteSpace=wrap;html=1;aspect=fixed;fillColor=#60a917;fontColor=#ffffff;strokeColor=#2D7600;" vertex="1" parent="1">
                    <mxGeometry x="3270" y="8340" width="220" height="220" as="geometry"/>
                </mxCell>
                <mxCell id="224" value="Projet" style="text;html=1;strokeColor=none;fillColor=none;align=center;verticalAlign=middle;whiteSpace=wrap;rounded=0;fontSize=90;" vertex="1" parent="1">
                    <mxGeometry x="3475" y="8460" width="280" height="80" as="geometry"/>
                </mxCell>
                <mxCell id="225" value="" style="ellipse;whiteSpace=wrap;html=1;aspect=fixed;fillColor=#60a917;fontColor=#ffffff;strokeColor=#2D7600;" vertex="1" parent="1">
                    <mxGeometry x="3230" y="8630" width="220" height="220" as="geometry"/>
                </mxCell>
                <mxCell id="226" value="" style="ellipse;whiteSpace=wrap;html=1;aspect=fixed;fillColor=#60a917;fontColor=#ffffff;strokeColor=#2D7600;" vertex="1" parent="1">
                    <mxGeometry x="3470" y="8560" width="220" height="220" as="geometry"/>
                </mxCell>
                <mxCell id="227" value="view" style="text;html=1;strokeColor=none;fillColor=none;align=center;verticalAlign=middle;whiteSpace=wrap;rounded=0;fontSize=90;" vertex="1" parent="1">
                    <mxGeometry x="3490" y="8630" width="190" height="80" as="geometry"/>
                </mxCell>
                <mxCell id="228" value="view" style="text;html=1;strokeColor=none;fillColor=none;align=center;verticalAlign=middle;whiteSpace=wrap;rounded=0;fontSize=90;" vertex="1" parent="1">
                    <mxGeometry x="3285" y="8410" width="190" height="80" as="geometry"/>
                </mxCell>
                <mxCell id="229" value="view" style="text;html=1;strokeColor=none;fillColor=none;align=center;verticalAlign=middle;whiteSpace=wrap;rounded=0;fontSize=90;" vertex="1" parent="1">
                    <mxGeometry x="3245" y="8710" width="190" height="80" as="geometry"/>
                </mxCell>
                <mxCell id="230" value="" style="ellipse;whiteSpace=wrap;html=1;aspect=fixed;fillColor=#d80073;fontColor=#ffffff;strokeColor=#A50040;" vertex="1" parent="1">
                    <mxGeometry x="3850" y="8480" width="720" height="720" as="geometry"/>
                </mxCell>
                <mxCell id="231" value="" style="ellipse;whiteSpace=wrap;html=1;aspect=fixed;fillColor=#60a917;fontColor=#ffffff;strokeColor=#2D7600;" vertex="1" parent="1">
                    <mxGeometry x="4060" y="8570" width="220" height="220" as="geometry"/>
                </mxCell>
                <mxCell id="232" value="Projet" style="text;html=1;strokeColor=none;fillColor=none;align=center;verticalAlign=middle;whiteSpace=wrap;rounded=0;fontSize=90;" vertex="1" parent="1">
                    <mxGeometry x="4265" y="8690" width="280" height="80" as="geometry"/>
                </mxCell>
                <mxCell id="233" value="" style="ellipse;whiteSpace=wrap;html=1;aspect=fixed;fillColor=#60a917;fontColor=#ffffff;strokeColor=#2D7600;" vertex="1" parent="1">
                    <mxGeometry x="4020" y="8860" width="220" height="220" as="geometry"/>
                </mxCell>
                <mxCell id="234" value="" style="ellipse;whiteSpace=wrap;html=1;aspect=fixed;fillColor=#60a917;fontColor=#ffffff;strokeColor=#2D7600;" vertex="1" parent="1">
                    <mxGeometry x="4260" y="8790" width="220" height="220" as="geometry"/>
                </mxCell>
                <mxCell id="235" value="view" style="text;html=1;strokeColor=none;fillColor=none;align=center;verticalAlign=middle;whiteSpace=wrap;rounded=0;fontSize=90;" vertex="1" parent="1">
                    <mxGeometry x="4280" y="8860" width="190" height="80" as="geometry"/>
                </mxCell>
                <mxCell id="236" value="view" style="text;html=1;strokeColor=none;fillColor=none;align=center;verticalAlign=middle;whiteSpace=wrap;rounded=0;fontSize=90;" vertex="1" parent="1">
                    <mxGeometry x="4075" y="8640" width="190" height="80" as="geometry"/>
                </mxCell>
                <mxCell id="237" value="view" style="text;html=1;strokeColor=none;fillColor=none;align=center;verticalAlign=middle;whiteSpace=wrap;rounded=0;fontSize=90;" vertex="1" parent="1">
                    <mxGeometry x="4035" y="8940" width="190" height="80" as="geometry"/>
                </mxCell>
                <mxCell id="238" value="" style="ellipse;whiteSpace=wrap;html=1;aspect=fixed;fillColor=#d80073;fontColor=#ffffff;strokeColor=#A50040;" vertex="1" parent="1">
                    <mxGeometry x="3210" y="9020" width="720" height="720" as="geometry"/>
                </mxCell>
                <mxCell id="239" value="" style="ellipse;whiteSpace=wrap;html=1;aspect=fixed;fillColor=#60a917;fontColor=#ffffff;strokeColor=#2D7600;" vertex="1" parent="1">
                    <mxGeometry x="3420" y="9110" width="220" height="220" as="geometry"/>
                </mxCell>
                <mxCell id="240" value="Projet" style="text;html=1;strokeColor=none;fillColor=none;align=center;verticalAlign=middle;whiteSpace=wrap;rounded=0;fontSize=90;" vertex="1" parent="1">
                    <mxGeometry x="3625" y="9230" width="280" height="80" as="geometry"/>
                </mxCell>
                <mxCell id="241" value="" style="ellipse;whiteSpace=wrap;html=1;aspect=fixed;fillColor=#60a917;fontColor=#ffffff;strokeColor=#2D7600;" vertex="1" parent="1">
                    <mxGeometry x="3380" y="9400" width="220" height="220" as="geometry"/>
                </mxCell>
                <mxCell id="242" value="" style="ellipse;whiteSpace=wrap;html=1;aspect=fixed;fillColor=#60a917;fontColor=#ffffff;strokeColor=#2D7600;" vertex="1" parent="1">
                    <mxGeometry x="3620" y="9330" width="220" height="220" as="geometry"/>
                </mxCell>
                <mxCell id="243" value="view" style="text;html=1;strokeColor=none;fillColor=none;align=center;verticalAlign=middle;whiteSpace=wrap;rounded=0;fontSize=90;" vertex="1" parent="1">
                    <mxGeometry x="3640" y="9400" width="190" height="80" as="geometry"/>
                </mxCell>
                <mxCell id="244" value="view" style="text;html=1;strokeColor=none;fillColor=none;align=center;verticalAlign=middle;whiteSpace=wrap;rounded=0;fontSize=90;" vertex="1" parent="1">
                    <mxGeometry x="3435" y="9180" width="190" height="80" as="geometry"/>
                </mxCell>
                <mxCell id="245" value="view" style="text;html=1;strokeColor=none;fillColor=none;align=center;verticalAlign=middle;whiteSpace=wrap;rounded=0;fontSize=90;" vertex="1" parent="1">
                    <mxGeometry x="3395" y="9480" width="190" height="80" as="geometry"/>
                </mxCell>
                <mxCell id="246" value="TEAM" style="text;html=1;strokeColor=none;fillColor=none;align=center;verticalAlign=middle;whiteSpace=wrap;rounded=0;fontSize=90;" vertex="1" parent="1">
                    <mxGeometry x="3660" y="8110" width="280" height="80" as="geometry"/>
                </mxCell>
                <mxCell id="251" style="edgeStyle=none;html=1;exitX=1;exitY=1;exitDx=0;exitDy=0;fontSize=500;" edge="1" parent="1" source="87" target="87">
                    <mxGeometry relative="1" as="geometry"/>
                </mxCell>
                <mxCell id="252" value="Squade" style="text;html=1;strokeColor=none;fillColor=none;align=center;verticalAlign=middle;whiteSpace=wrap;rounded=0;fontSize=500;" vertex="1" parent="1">
                    <mxGeometry x="7655" y="-160" width="2170" height="1000" as="geometry"/>
                </mxCell>
                <mxCell id="253" value="Squade" style="text;html=1;strokeColor=none;fillColor=none;align=center;verticalAlign=middle;whiteSpace=wrap;rounded=0;fontSize=500;" vertex="1" parent="1">
                    <mxGeometry x="4785" y="5600" width="2170" height="1000" as="geometry"/>
                </mxCell>
                <mxCell id="254" value="Entreprise" style="text;html=1;strokeColor=none;fillColor=none;align=center;verticalAlign=middle;whiteSpace=wrap;rounded=0;fontSize=500;" vertex="1" parent="1">
                    <mxGeometry x="3570" y="-1920" width="2340" height="1030" as="geometry"/>
                </mxCell>
            </root>
        </mxGraphModel>
    </diagram>
</mxfile>
